<?xml version="1.0" standalone="no"?><!DOCTYPE svg PUBLIC "-//W3C//DTD SVG 1.1//EN" "http://www.w3.org/Graphics/SVG/1.1/DTD/svg11.dtd"><svg t="1648794165899" class="icon" viewBox="0 0 1024 1024" version="1.1" xmlns="http://www.w3.org/2000/svg" p-id="3597" xmlns:xlink="http://www.w3.org/1999/xlink" width="200" height="200"><defs><style type="text/css"></style></defs><path d="M661.832 567.816l46.136 266.64c0 74.304-60.184 134.552-134.552 134.552H456.072c-74.368 0-134.616-60.248-134.616-134.552l46.136-266.64" fill="#d81e06" p-id="3598"></path><path d="M519.792 567.816v401.192h53.624c74.368 0 134.552-60.248 134.552-134.552l-46.136-266.64H519.792z" fill="#d81e06" p-id="3599"></path><path d="M992 502.76c0 265.088-214.96 133.432-479.968 133.432C246.968 636.184 32 767.776 32 502.76c0-265.096 214.968-447.76 480.032-447.76C777.04 55 992 237.664 992 502.76z" fill="#d81e06" p-id="3600"></path><path d="M986.832 436.84c-1.384-9.672-2.52-19.472-4.504-28.864-1.576-7.528-3.872-14.712-5.832-22.056-1.952-7.376-3.56-14.872-5.856-22.032-2.744-8.472-6.168-16.544-9.392-24.736-2.232-5.64-4.096-11.504-6.552-17.016-4.008-9.072-8.728-17.704-13.36-26.4-2.232-4.224-4.168-8.664-6.52-12.8-5.512-9.512-11.656-18.592-17.832-27.64-2.024-2.928-3.76-6.016-5.8-8.88-7.096-9.8-14.816-19.128-22.72-28.296-1.512-1.768-2.84-3.688-4.416-5.456a428.728 428.728 0 0 0-27.6-28.072c-0.944-0.88-1.768-1.856-2.744-2.744a451.36 451.36 0 0 0-32.616-27.224c-0.248-0.184-0.504-0.408-0.752-0.6C738.752 92.552 634.112 56.944 519.792 55.408v580.976c82.896 0.76 160.704 13.928 228.328 23.312 6.488 0.88 12.88 1.776 19.216 2.592l9.104 1.128c8.32 1.008 16.448 1.952 24.36 2.72 2.08 0.248 4.096 0.376 6.12 0.552 6.736 0.64 13.328 1.08 19.784 1.456 1.952 0.136 3.936 0.256 5.864 0.32 7.52 0.376 14.832 0.504 21.928 0.376 1.88 0 3.688-0.064 5.504-0.128 6.4-0.184 12.64-0.568 18.624-1.2 1.008-0.128 2.08-0.128 3.064-0.248a174.88 174.88 0 0 0 18.968-3.4c1.536-0.32 3.12-0.76 4.624-1.144a134.096 134.096 0 0 0 17.432-5.792c0.416-0.192 0.792-0.448 1.192-0.632a99.256 99.256 0 0 0 14.552-8.008c1.168-0.752 2.336-1.512 3.472-2.328a95.872 95.872 0 0 0 13.24-11.472c0.688-0.76 1.288-1.576 1.984-2.4 3.52-3.968 6.832-8.384 9.848-13.224 0.736-1.072 1.488-2.152 2.152-3.344 3.248-5.552 6.176-11.728 8.76-18.408 0.536-1.448 1.048-3.024 1.544-4.472 2.24-6.368 4.224-13.176 5.864-20.544 0.248-1.144 0.56-2.144 0.784-3.344 1.736-8.248 2.992-17.328 3.936-26.912a401.896 401.896 0 0 0 1.96-39.016c0-16.48-0.84-32.64-2.456-48.464-0.624-5.992-1.888-11.656-2.712-17.52z" fill="#d81e06" p-id="3601"></path><path d="M504.216 142.936c-78.24 0-141.704 57.416-141.704 128.248 0 70.808 63.464 16.888 141.704 16.888 78.208 0 183.672 53.912 183.672-16.888 0-70.832-105.456-128.248-183.672-128.248z" fill="#d81e06" p-id="3602"></path><path d="M519.792 288.744c75.904 5.832 168.104 48.648 168.104-17.552 0-66.232-92.192-120.712-168.104-127.52v145.072zM834.424 467.024c0 57.16 48.656 87.296 103.504 71.224 19.16-5.6 37.376-9.064 53.16-13.48 0.416-7.144 0.912-14.072 0.912-21.952 0-16.48-0.84-32.64-2.456-48.464-0.624-5.992-1.888-11.656-2.712-17.52-1.384-9.672-2.52-19.472-4.504-28.864-0.624-2.96-1.504-5.768-2.296-8.632-12.856-2.496-27.072-3.56-42.104-3.56-57.152 0.008-103.504 14.088-103.504 71.248z" fill="#d81e06" p-id="3603"></path><path d="M159.744 192.384c-35.232 34.72-64.408 75.056-85.832 120.432 13.072 30.568 42.824 52 77.512 52 46.76 0 20.168-38.824 20.168-86.72 0-44.44 22.12-80.608-11.848-85.712z" fill="#d81e06" p-id="3604"></path></svg>