<?xml version="1.0" standalone="no"?><!DOCTYPE svg PUBLIC "-//W3C//DTD SVG 1.1//EN" "http://www.w3.org/Graphics/SVG/1.1/DTD/svg11.dtd"><svg t="1648794202815" class="icon" viewBox="0 0 1024 1024" version="1.1" xmlns="http://www.w3.org/2000/svg" p-id="3941" xmlns:xlink="http://www.w3.org/1999/xlink" width="200" height="200"><defs><style type="text/css"></style></defs><path d="M679.047938 790.593088c-25.60981 0-52.069119-0.363434-79.255296-0.724638a6920.869565 6920.869565 0 0 0-175.585284 0c-27.186176 0.381271-53.647715 0.724638-79.237458 0.724638-59.012263 0-111.09922-2.138239-156.735786-9.170568-4.441472 15.768116-6.978818 32.314381-6.978819 49.47826 0 101.076923 82.245262 183.324415 183.324415 183.324415h267.690078c101.076923 0 183.324415-82.247492 183.324415-183.324415 0-15.839465-2.229654-31.119287-6.017837-45.781493-40.742475 4.421405-84.746934 5.473802-130.528428 5.473801zM1024 521.779264c0-282.316611-229.683389-512-512-512S0 239.462653 0 521.779264c0 103.105909 29.886288 167.518395 94.044593 202.662208 21.892977 11.979933 47.266444 20.408027 75.957637 26.31661 4.403567 0.90524 9.117057 1.576366 13.683389 2.356745 4.639911 0.798216 9.206243 1.667781 14.008918 2.356745 42.717949 6.107023 91.761427 7.955407 147.275363 7.955407 25.464883 0 51.817168-0.363434 78.876254-0.706801 28.671126-0.381271 58.140468-0.780379 88.173913-0.780379s59.48272 0.381271 88.153846 0.780379c27.041249 0.363434 53.393534 0.7068 78.894091 0.706801 43.661093 0 84.530658-0.816054 121.828317-4.350056 4.749164-0.45262 9.406912-0.960981 14.028986-1.505017a515.384615 515.384615 0 0 0 13.756967-1.794871c119.324415-17.036789 195.317726-70.557414 195.317726-233.997771z" p-id="3942" fill="#d81e06"></path></svg>