<?xml version="1.0" standalone="no"?><!DOCTYPE svg PUBLIC "-//W3C//DTD SVG 1.1//EN" "http://www.w3.org/Graphics/SVG/1.1/DTD/svg11.dtd"><svg t="1648794221860" class="icon" viewBox="0 0 1024 1024" version="1.1" xmlns="http://www.w3.org/2000/svg" p-id="6046" xmlns:xlink="http://www.w3.org/1999/xlink" width="200" height="200"><defs><style type="text/css"></style></defs><path d="M598.712856 624.963202H556.460046c-29.640031-0.15766-59.280062-0.15766-88.920092 0h-42.25281c-107.366282 0-209.845112-2.049577-282.99923-26.644495C59.201232 570.412933 18.840339 515.389684 18.840339 429.938106c0-49.662818 11.509161-102.005851 33.108545-151.353348 22.545343-51.397075 55.023249-97.906697 96.17244-138.425251 44.144727-43.198768 96.3301-77.253272 154.979523-101.217552C367.110701 13.085758 437.269284 0 512 0c73.469438 0 142.997383 13.085758 206.691917 39.099615C777.18368 63.063895 829.369053 96.960739 873.67144 140.159507c41.149192 40.045574 74.730716 87.816474 97.433718 138.267591 22.230023 49.505158 33.896844 102.005851 33.896844 151.511008 0 85.293918-40.360893 140.317167-123.447576 168.222941-72.996459 24.752579-175.475289 26.802156-282.84157 26.802155z m-86.712856-35.000461c14.977675 0 29.95535 0 44.617706 0.157659h42.25281c224.349808 0 371.604003-11.193841 371.604003-160.024634 0-92.230947-45.248345-191.241263-120.76736-264.86836-86.712856-84.03264-206.534257-130.384604-337.707159-130.384604-282.99923 0-458.316859 205.115319-458.316859 395.095304 0 70.316243 30.743649 112.096074 99.640954 135.272056 68.266667 22.860662 167.592302 24.910239 271.963049 24.910238h42.25281c14.504696-0.15766 29.482371-0.15766 44.460046-0.157659z m0 0" p-id="6047" fill="#f4ea2a"></path><path d="M539.905774 1024h-4.099154c-94.122864-0.630639-158.763356-21.126405-197.547652-62.748576-32.950885-35.315781-46.509623-85.136259-41.77983-152.456967 0-0.472979 0.15766-1.103618 0.15766-1.576597 0.472979-3.153195 12.770439-77.726251 17.50023-103.267129 7.882987-42.41047-6.14873-90.18137-6.306389-90.654349-2.680216-9.144265 2.522556-18.919169 11.666821-21.757044 9.144265-2.680216 18.919169 2.522556 21.757043 11.666821 0.630639 2.207236 16.554273 56.442186 7.252348 107.050962-4.414473 23.96428-15.923634 93.649885-17.184911 101.848191-3.941493 56.599846 6.779369 97.591378 32.635566 125.339492 32.004927 34.527483 89.077752 51.397075 174.214011 51.554734C654.051424 988.526559 720.426174 925.462664 720.426174 815.889145v-0.157659c0-0.788299-0.472979-30.27067-25.225558-100.902233-22.230023-63.852194-9.144265-110.204157-8.513626-112.253733 2.680216-9.301925 12.455119-14.504696 21.599384-11.824481 9.144265 2.680216 14.504696 12.29746 11.824481 21.599384-0.15766 0.788299-10.247883 38.626636 7.882986 90.969669 26.486836 75.991994 27.117475 108.31224 27.117475 112.726713 0 65.901771-21.599384 119.821401-62.275596 156.083141-37.207698 33.108545-89.550731 50.924095-151.668668 51.712394-0.630639 0-0.945958 0.15766-1.261278 0.15766z m0 0" p-id="6048" fill="#f4ea2a"></path><path d="M411.570747 922.624788c-2.364896 0-4.887452-0.945958-6.621709-2.995535-36.26174-41.622171-28.378753-122.816936-27.905774-126.28545 0.472979-4.729792 4.729792-8.198306 9.617244-7.725327 4.729792 0.472979 8.198306 4.729792 7.725327 9.617244 0 0.788299-7.567667 77.253272 23.806621 113.042032 2.207236 2.522556 2.837875 6.14873 1.418937 9.301925-1.576597 3.153195-4.729792 5.045112-8.040646 5.045111z m453.114087-615.503618c-4.256813 0-7.725327-2.995535-8.513625-7.094688-8.986605-46.824942-73.784758-87.974134-74.415397-88.447113-4.099153-2.522556-5.360431-7.882987-2.680215-11.98214 2.522556-4.099153 7.882987-5.360431 11.98214-2.680216 2.995535 1.891917 71.892841 45.721324 82.298383 99.956274 0.472979 2.522556-0.15766 5.202771-1.891917 7.252348-1.734257 1.891917-4.256813 2.995535-6.779369 2.995535z m0 0" p-id="6049" fill="#f4ea2a"></path></svg>